<?xml version="1.0" encoding="UTF-8"?>
<svg width="358px" height="105px" viewBox="0 0 358 105" version="1.1" xmlns="http://www.w3.org/2000/svg" xmlns:xlink="http://www.w3.org/1999/xlink">
    <title>Group</title>
    <g id="Page-1" stroke="none" stroke-width="1" fill="none" fill-rule="evenodd">
        <g id="Group" transform="translate(-0.000000, 0.000000)" fill-rule="nonzero">
            <path d="M30.8779419,15.6951359 C26.5236799,10.4821327 18.0690916,13.1600365 17.4787375,19.9392323 L12.9369111,72.0904626 C12.2329205,80.1738761 18.1852233,87.3004861 26.2317466,88.0073461 L71.6984173,92.0035761 C79.7449406,92.7104361 86.8390271,86.7311308 87.5426612,78.6477173 L92.084559,26.4963438 C92.6748417,19.7172196 84.8122471,15.6050417 79.6230344,19.9792663 L67.0887226,30.5447825 C65.6520828,31.7558264 64.9337628,32.3613484 64.619587,33.1047331 C64.3432662,33.7587397 64.2801744,34.4837189 64.4392228,35.175969 C64.620086,35.9628969 65.2228445,36.68451 66.4283616,38.1278079 L68.9669338,41.1670195 C80.6966646,55.2102585 69.6698551,76.4898964 51.4907863,74.8921206 L49.090517,74.6815665 C30.9115196,73.0837907 23.7302452,50.2035123 37.7094666,38.4197905 L40.7348082,35.8695799 C42.1715193,34.658536 42.8898392,34.0530141 43.2039438,33.3095577 C43.4802645,32.6556227 43.5434276,31.9306436 43.384308,31.2383934 C43.2034447,30.4514656 42.6007575,29.7298524 41.3952405,28.2865545 L30.8779419,15.6951359 Z M4.64815082,18.8115507 C6.23861348,0.549216774 29.0143451,-6.66494507 40.7442185,7.37832254 L51.2615171,19.9698128 C52.4670341,21.4130391 53.0697926,22.1346522 53.8098561,22.4502684 C54.4608068,22.727856 55.1825486,22.7912371 55.8715682,22.6314595 C56.6549048,22.4497671 57.3732247,21.8442452 58.8099359,20.6332013 L71.3441051,10.0677566 C85.3233977,-1.71592942 106.505851,9.36161278 104.915367,27.6240255 L100.373469,79.7756854 C99.0496101,94.9771149 85.7090776,106.223136 70.5762385,104.893208 L25.1092113,100.896978 C9.97658607,99.56705 -1.21761283,86.1646401 0.10632007,70.9629958 Z M51.9519625,43.7829029 C51.168626,43.9645953 50.450306,44.5701173 49.0136662,45.7811611 L45.9882533,48.3313717 C40.7991119,52.7055963 43.4647946,61.198874 50.2130523,61.7920062 L52.6133216,62.0029899 C59.361508,62.5960505 63.4548479,54.6967644 59.1005859,49.4837613 L56.5620137,46.4445496 C55.3564967,45.0013234 54.7537381,44.2796386 54.013746,43.964094 C53.3627953,43.6865064 52.6410535,43.6230537 51.9519625,43.7829029 Z" id="Shape" fill="#DB2777"></path>
            <path d="M358,24 C358,21.23858 355.761,19 353,19 L350,19 C342.82,19 337,24.8203 337,32 L337,81 C337,82.6569 335.657,84 334,84 L332,84 C329.239,84 327,86.2386 327,89 C327,91.7614 329.239,94 332,94 L334,94 C341.18,94 347,88.1797 347,81 L347,32 C347,30.3431 348.343,29 350,29 L353,29 C355.761,29 358,26.76142 358,24 Z" id="Path" fill="#FFFFFF"></path>
            <path d="M318,35 C320.761,35 323,37.2386 323,40 L323,74 C323,76.7614 320.761,79 318,79 C315.239,79 313,76.7614 313,74 L313,40 C313,37.2386 315.239,35 318,35 Z" id="Path" fill="#FFFFFF"></path>
            <path d="M291,24 C293.761,24 296,26.23858 296,29 L296,66 C296,67.6569 297.343,69 299,69 L301,69 C303.761,69 306,71.2386 306,74 C306,76.7614 303.761,79 301,79 L299,79 C291.82,79 286,73.1797 286,66 L286,29 C286,26.23858 288.239,24 291,24 Z" id="Path" fill="#FFFFFF"></path>
            <path d="M279,39 C279,36.7909 280.791,35 283,35 L300.5,35 C302.709,35 304.5,36.7909 304.5,39 C304.5,41.2091 302.709,43 300.5,43 L283,43 C280.791,43 279,41.2091 279,39 Z" id="Path" fill="#FFFFFF"></path>
            <path d="M330,39 C330,36.7909 331.791,35 334,35 L351.5,35 C353.709,35 355.5,36.7909 355.5,39 C355.5,41.2091 353.709,43 351.5,43 L334,43 C331.791,43 330,41.2091 330,39 Z" id="Path" fill="#FFFFFF"></path>
            <path d="M254,35 C266.15,35 276,44.8497 276,57 C276,69.1503 266.15,79 254,79 C241.8497,79 232,69.1503 232,57 C232,44.8497 241.8497,35 254,35 Z M254,45 C247.3726,45 242,50.3726 242,57 C242,63.6274 247.3726,69 254,69 C260.6274,69 266,63.6274 266,57 C266,50.3726 260.6274,45 254,45 Z" id="Shape" fill="#FFFFFF"></path>
            <path d="M212,41.4654 L212,74 C212,76.7614 214.2386,79 217,79 C219.7614,79 222,76.7614 222,74 L222,27.38616 C222,19.832109 211.6875,17.63458 208.608,24.5326 L192,61.7346 L175.392,24.5326 C172.3125,17.63458 162,19.832107 162,27.38616 L162,74 C162,76.7614 164.23858,79 167,79 C169.76142,79 172,76.7614 172,74 L172,41.4654 L185.608,71.9474 C188.0762,77.476 195.9238,77.476 198.392,71.9474 L212,41.4654 Z" id="Path" fill="#FFFFFF"></path>
            <path d="M323,24 C323,26.76142 320.761,29 318,29 C315.239,29 313,26.76142 313,24 C313,21.23858 315.239,19 318,19 C320.761,19 323,21.23858 323,24 Z" id="Path" fill="#FFFFFF"></path>
        </g>
    </g>
</svg>