<?xml version="1.0" encoding="UTF-8"?>
<svg width="312px" height="51px" viewBox="0 0 312 51" version="1.1" xmlns="http://www.w3.org/2000/svg" xmlns:xlink="http://www.w3.org/1999/xlink">
    <title>Group</title>
    <g id="Page-1" stroke="none" stroke-width="1" fill="none" fill-rule="evenodd">
        <g id="Group" fill-rule="nonzero">
            <path d="M44.625,0 C48.1458153,0 51,2.85418472 51,6.375 C51,8.88884298 49.5449702,11.0628455 47.4311498,12.1007685 L47.4311498,38.8992315 C49.5449702,39.9371545 51,42.111157 51,44.625 C51,48.1458153 48.1458153,51 44.625,51 C42.0111197,51 39.7646655,49.4268614 38.7807678,47.1757142 L12.2192322,47.1757142 C11.2353345,49.4268614 8.98888034,51 6.375,51 C2.85418472,51 0,48.1458153 0,44.625 C0,42.0111197 1.57313865,39.7646655 3.82428577,38.7807678 L3.82428577,12.2192322 C1.57313865,11.2353345 0,8.98888034 0,6.375 C0,2.85418472 2.85418472,0 6.375,0 C8.98888034,0 11.2353345,1.57313865 12.2192322,3.82428577 L38.7807678,3.82428577 C39.7646655,1.57313865 42.0111197,0 44.625,0 Z M44.625,42.075 C43.2166739,42.075 42.075,43.2166739 42.075,44.625 C42.075,46.0333261 43.2166739,47.175 44.625,47.175 C46.0333261,47.175 47.175,46.0333261 47.175,44.625 C47.175,43.2166739 46.0333261,42.075 44.625,42.075 Z M6.375,42.075 C4.96667389,42.075 3.825,43.2166739 3.825,44.625 C3.825,46.0333261 4.96667389,47.175 6.375,47.175 C7.78332611,47.175 8.925,46.0333261 8.925,44.625 C8.925,43.2166739 7.78332611,42.075 6.375,42.075 Z M38.7807678,8.92571423 L12.2192322,8.92571423 C11.5767163,10.3957835 10.3957835,11.5767163 8.92571423,12.2192322 L8.92571423,38.7807678 C10.3961148,39.4234285 11.5772485,40.6047487 12.2196664,42.0752795 L38.7803336,42.0752795 C39.4596132,40.5203703 40.7412048,39.2888134 42.3302087,38.6755086 L42.3302087,12.3244914 C40.7415433,11.7113173 39.4601593,10.4801545 38.7807678,8.92571423 Z M30.7,15.3 C33.4614237,15.3 35.7,17.5385763 35.7,20.3 L35.7,30.7 C35.7,33.4614237 33.4614237,35.7 30.7,35.7 L20.3,35.7 C17.5385763,35.7 15.3,33.4614237 15.3,30.7 L15.3,20.3 C15.3,17.5385763 17.5385763,15.3 20.3,15.3 L30.7,15.3 Z M6.375,3.825 C4.96667389,3.825 3.825,4.96667389 3.825,6.375 C3.825,7.78332611 4.96667389,8.925 6.375,8.925 C7.78332611,8.925 8.925,7.78332611 8.925,6.375 C8.925,4.96667389 7.78332611,3.825 6.375,3.825 Z M44.625,3.825 C43.2166739,3.825 42.075,4.96667389 42.075,6.375 C42.075,7.78332611 43.2166739,8.925 44.625,8.925 C46.0333261,8.925 47.175,7.78332611 47.175,6.375 C47.175,4.96667389 46.0333261,3.825 44.625,3.825 Z" id="Combined-Shape" fill="#A855F7"></path>
            <g id="placemark" transform="translate(84.000000, 8.000000)" fill="#FFFFFF">
                <path d="M0,0 L0,33.6 L6.336,33.6 L6.336,21.312 L13.824,21.312 C20.016,21.312 24.576,17.088 24.576,10.656 C24.576,4.224 20.16,0 13.824,0 L0,0 Z M6.336,5.76 L13.2,5.76 C16.224,5.76 18.24,7.68 18.24,10.656 C18.24,13.632 16.224,15.552 13.2,15.552 L6.336,15.552 L6.336,5.76 Z M33.889,0 L27.841,0 L27.841,33.6 L33.889,33.6 L33.889,0 Z M38.511,15.264 L43.407,18.432 C44.895,15.936 46.863,14.304 50.031,14.304 C53.295,14.304 55.023,16.08 55.023,18.336 L55.023,18.912 L45.903,19.92 C41.343,20.4 38.031,23.04 38.031,26.832 C38.031,31.392 41.583,34.272 46.959,34.272 C51.999,34.272 53.679,31.824 54.447,30.24 L55.119,30.24 L55.119,33.6 L61.071,33.6 L61.071,18.384 C61.071,12.816 56.847,9.12 50.367,9.12 C44.559,9.12 41.343,11.712 38.511,15.264 Z M44.367,26.496 C44.367,25.104 45.471,24.288 47.727,24 L55.023,23.136 L55.023,23.52 C55.023,26.784 52.671,29.28 48.447,29.28 C45.759,29.28 44.367,28.128 44.367,26.496 Z M64.698,21.696 C64.698,29.088 70.17,34.272 77.082,34.272 C83.754,34.272 87.93,30.576 89.082,25.152 L83.13,23.664 C82.506,26.784 80.826,28.896 77.178,28.896 C73.29,28.896 70.746,26.016 70.746,21.696 C70.746,17.376 73.53,14.496 77.178,14.496 C80.826,14.496 82.698,16.896 83.13,19.776 L89.082,18.24 C87.834,12.816 83.706,9.12 77.082,9.12 C70.17,9.12 64.698,14.304 64.698,21.696 Z M91.37,21.504 C91.37,28.896 96.506,34.272 103.61,34.272 C109.994,34.272 112.778,30.912 114.41,28.416 L109.466,25.536 C108.65,27.216 106.874,29.088 103.514,29.088 C100.058,29.088 97.802,26.64 97.562,23.472 L114.89,23.472 L114.89,21.12 C114.89,13.968 110.234,9.12 103.322,9.12 C96.314,9.12 91.37,14.304 91.37,21.504 Z M97.61,19.248 C98.09,16.32 99.866,14.304 103.274,14.304 C106.394,14.304 108.314,16.224 108.746,19.248 L97.61,19.248 L97.61,19.248 Z M118.638,9.792 L118.638,33.6 L124.686,33.6 L124.686,19.104 C124.686,16.128 126.51,14.688 129.006,14.688 C131.31,14.688 132.894,15.936 132.894,18.144 L132.894,33.6 L138.942,33.6 L138.942,19.104 C138.942,16.128 140.766,14.688 143.262,14.688 C145.566,14.688 147.15,15.936 147.15,18.144 L147.15,33.6 L153.198,33.6 L153.198,17.664 C153.198,12.72 149.694,9.408 145.326,9.408 C141.534,9.408 139.614,11.232 138.558,13.44 L137.886,13.44 C136.878,11.04 134.622,9.408 131.55,9.408 C128.238,9.408 126.27,11.04 125.262,13.344 L124.59,13.344 L124.59,9.792 L118.638,9.792 L118.638,9.792 Z M157.527,15.264 L162.423,18.432 C163.911,15.936 165.879,14.304 169.047,14.304 C172.311,14.304 174.039,16.08 174.039,18.336 L174.039,18.912 L164.919,19.92 C160.359,20.4 157.047,23.04 157.047,26.832 C157.047,31.392 160.599,34.272 165.975,34.272 C171.015,34.272 172.695,31.824 173.463,30.24 L174.135,30.24 L174.135,33.6 L180.087,33.6 L180.087,18.384 C180.087,12.816 175.863,9.12 169.383,9.12 C163.575,9.12 160.359,11.712 157.527,15.264 L157.527,15.264 Z M163.383,26.496 C163.383,25.104 164.487,24.288 166.743,24 L174.039,23.136 L174.039,23.52 C174.039,26.784 171.687,29.28 167.463,29.28 C164.775,29.28 163.383,28.128 163.383,26.496 Z M191.106,9.792 L185.154,9.792 L185.154,33.6 L191.202,33.6 L191.202,20.16 C191.202,16.8 193.41,15.168 196.482,15.168 L200.034,15.168 L200.034,9.696 L197.73,9.696 C194.706,9.696 192.69,10.608 191.778,13.248 L191.106,13.248 L191.106,9.792 Z M227.875,9.792 L219.427,9.792 L209.731,17.952 L209.155,17.952 L209.155,0 L203.107,0 L203.107,33.6 L209.155,33.6 L209.155,25.392 L212.803,22.368 L220.483,33.6 L227.491,33.6 L217.075,18.768 L227.875,9.792 L227.875,9.792 Z" id="Shape"></path>
            </g>
        </g>
    </g>
</svg>